<!DOCTYPE svg PUBLIC "-//W3C//DTD SVG 1.1//EN" "http://www.w3.org/Graphics/SVG/1.1/DTD/svg11.dtd">

<!-- Uploaded to: SVG Repo, www.svgrepo.com, Transformed by: SVG Repo Mixer Tools -->
<svg version="1.1" id="Layer_1" xmlns="http://www.w3.org/2000/svg" xmlns:xlink="http://www.w3.org/1999/xlink" viewBox="0 0 512 512" xml:space="preserve" width="800px" height="800px" fill="#737373" stroke="#737373" stroke-width="0.00512">

<g id="SVGRepo_bgCarrier" stroke-width="0"/>

<g id="SVGRepo_tracerCarrier" stroke-linecap="round" stroke-linejoin="round"/>

<g id="SVGRepo_iconCarrier"> <rect x="173.1" y="7.287" style="fill:#FFFFFF;" width="165.81" height="497.43"/> <path style="fill:#fb923c;" d="M395.901,7.287h-56.997v497.427h56.997c60.095,0,108.812-48.717,108.812-108.812V116.099 C504.714,56.003,455.997,7.287,395.901,7.287z"/> <path style="fill:#34d399;" d="M116.099,7.287C56.003,7.287,7.286,56.003,7.286,116.099v279.803 c0,60.095,48.717,108.812,108.812,108.812h56.997V7.287H116.099z"/> <path d="M395.901,0H116.099C52.082,0,0,52.082,0,116.099v279.803C0,459.918,52.082,512,116.099,512h279.803 C459.918,512,512,459.918,512,395.901V116.099C512,52.082,459.918,0,395.901,0z M14.573,395.901V116.099 c0-55.981,45.544-101.526,101.526-101.526h49.711v340.912c0,4.024,3.262,7.286,7.286,7.286c4.025,0,7.287-3.262,7.287-7.286V14.573 h151.235v482.854H180.382v-92.199c0-4.024-3.262-7.286-7.287-7.286c-4.025,0-7.286,3.262-7.286,7.286v92.199h-49.711 C60.118,497.427,14.573,451.883,14.573,395.901z M497.427,395.901c0,55.982-45.545,101.526-101.526,101.526H346.19V14.573h49.711 c55.981,0,101.526,45.544,101.526,101.526V395.901z"/> </g>

</svg>